<svg xmlns="http://www.w3.org/2000/svg" xmlns:xlink="http://www.w3.org/1999/xlink" width="1080" zoomAndPan="magnify" viewBox="0 0 810 809.999993" height="1080" preserveAspectRatio="xMidYMid meet" version="1.0"><defs><clipPath id="11dd5e1cfe"><path d="M 88 478 L 335 478 L 335 724.375 L 88 724.375 Z M 88 478 " clip-rule="nonzero"/></clipPath></defs><path fill="#000000" d="M 460.714844 595.636719 C 465.707031 595.640625 470.691406 595.488281 475.671875 595.1875 C 480.652344 594.882812 485.617188 594.425781 490.570312 593.816406 C 495.523438 593.207031 500.453125 592.449219 505.359375 591.539062 C 510.265625 590.625 515.136719 589.566406 519.980469 588.355469 C 524.820312 587.144531 529.617188 585.785156 534.375 584.28125 C 539.132812 582.777344 543.839844 581.125 548.496094 579.332031 C 553.152344 577.539062 557.75 575.601562 562.285156 573.527344 C 566.824219 571.449219 571.292969 569.238281 575.695312 566.886719 C 580.09375 564.535156 584.421875 562.050781 588.667969 559.4375 C 592.917969 556.820312 597.082031 554.074219 601.164062 551.203125 C 605.242188 548.332031 609.230469 545.335938 613.128906 542.21875 C 617.023438 539.101562 620.824219 535.871094 624.519531 532.519531 C 628.21875 529.171875 631.808594 525.710938 635.296875 522.140625 C 638.78125 518.570312 642.15625 514.894531 645.414062 511.117188 C 648.675781 507.339844 651.816406 503.464844 654.835938 499.496094 C 657.859375 495.523438 660.757812 491.464844 663.53125 487.316406 C 666.304688 483.167969 668.945312 478.9375 671.460938 474.628906 C 673.972656 470.316406 676.351562 465.933594 678.59375 461.476562 C 680.839844 457.019531 682.945312 452.5 684.910156 447.914062 C 686.878906 443.328125 688.703125 438.683594 690.382812 433.988281 C 692.066406 429.289062 693.601562 424.542969 694.992188 419.753906 C 696.378906 414.960938 697.621094 410.128906 698.714844 405.261719 C 699.808594 400.394531 700.753906 395.496094 701.546875 390.570312 C 702.339844 385.640625 702.980469 380.695312 703.46875 375.730469 C 703.957031 370.765625 704.292969 365.789062 704.476562 360.800781 C 704.660156 355.816406 704.691406 350.828125 704.570312 345.839844 C 704.449219 340.851562 704.171875 335.871094 703.742188 330.902344 C 703.316406 325.929688 702.734375 320.976562 702.003906 316.039062 C 701.269531 311.105469 700.386719 306.195312 699.355469 301.3125 C 698.320312 296.433594 697.136719 291.585938 695.804688 286.777344 C 694.476562 281.96875 692.996094 277.207031 691.375 272.488281 C 689.75 267.769531 687.984375 263.105469 686.074219 258.496094 C 684.164062 253.886719 682.113281 249.339844 679.925781 244.855469 C 677.734375 240.371094 675.410156 235.960938 672.949219 231.617188 C 670.488281 227.277344 667.898438 223.015625 665.175781 218.832031 C 662.457031 214.652344 659.609375 210.554688 656.632812 206.550781 C 653.660156 202.542969 650.566406 198.628906 647.355469 194.8125 C 644.140625 190.996094 640.8125 187.28125 637.371094 183.667969 C 633.929688 180.054688 630.382812 176.550781 626.726562 173.15625 C 623.066406 169.757812 619.3125 166.480469 615.453125 163.316406 C 611.59375 160.152344 607.644531 157.109375 603.597656 154.1875 C 599.554688 151.265625 595.421875 148.46875 591.207031 145.800781 C 586.988281 143.132812 582.695312 140.597656 578.324219 138.191406 C 573.953125 135.789062 569.507812 133.519531 564.996094 131.386719 C 560.488281 129.253906 555.914062 127.265625 551.28125 125.414062 C 546.644531 123.5625 541.960938 121.855469 537.222656 120.292969 C 532.484375 118.726562 527.699219 117.3125 522.875 116.042969 C 518.050781 114.773438 513.191406 113.652344 508.296875 112.679688 C 503.402344 111.707031 498.480469 110.886719 493.539062 110.21875 C 488.59375 109.550781 483.632812 109.03125 478.65625 108.667969 C 473.679688 108.304688 468.695312 108.089844 463.707031 108.03125 C 458.71875 107.972656 453.730469 108.066406 448.746094 108.316406 C 443.761719 108.5625 438.792969 108.960938 433.832031 109.515625 C 428.875 110.066406 423.9375 110.769531 419.019531 111.628906 C 414.105469 112.484375 409.21875 113.488281 404.367188 114.644531 C 399.511719 115.800781 394.699219 117.101562 389.921875 118.554688 C 385.148438 120.003906 380.425781 121.601562 375.75 123.34375 C 371.070312 125.085938 366.453125 126.96875 361.894531 128.992188 C 357.332031 131.015625 352.839844 133.179688 348.410156 135.480469 C 343.984375 137.78125 339.628906 140.214844 335.351562 142.785156 C 331.074219 145.351562 326.878906 148.050781 322.765625 150.875 C 318.652344 153.699219 314.632812 156.648438 310.699219 159.722656 C 306.769531 162.792969 302.933594 165.984375 299.199219 169.292969 C 295.464844 172.601562 291.832031 176.019531 288.304688 179.550781 C 286.1875 181.664062 284.113281 183.820312 282.074219 186.011719 C 280.035156 188.203125 278.039062 190.429688 276.082031 192.695312 C 274.125 194.960938 272.214844 197.257812 270.34375 199.59375 C 268.472656 201.929688 266.644531 204.300781 264.859375 206.703125 C 263.074219 209.105469 261.335938 211.539062 259.640625 214.007812 C 257.949219 216.472656 256.300781 218.96875 254.699219 221.496094 C 253.09375 224.027344 251.539062 226.582031 250.03125 229.167969 C 248.523438 231.75 247.066406 234.363281 245.652344 237 C 244.242188 239.640625 242.878906 242.304688 241.566406 244.992188 C 240.25 247.679688 238.988281 250.394531 237.773438 253.128906 C 236.558594 255.863281 235.398438 258.621094 234.285156 261.398438 C 233.171875 264.175781 232.113281 266.976562 231.101562 269.792969 C 230.09375 272.609375 229.136719 275.445312 228.230469 278.296875 C 227.328125 281.148438 226.476562 284.019531 225.675781 286.902344 C 224.878906 289.785156 224.132812 292.683594 223.441406 295.59375 C 222.746094 298.507812 222.109375 301.429688 221.523438 304.363281 C 220.941406 307.300781 220.410156 310.242188 219.933594 313.199219 C 219.457031 316.152344 219.035156 319.113281 218.667969 322.085938 C 218.304688 325.054688 217.992188 328.03125 217.734375 331.011719 C 217.476562 333.992188 217.273438 336.980469 217.125 339.96875 C 216.980469 342.957031 216.886719 345.949219 216.851562 348.941406 C 216.8125 351.933594 216.832031 354.925781 216.902344 357.914062 C 216.976562 360.90625 217.105469 363.898438 217.289062 366.882812 C 217.472656 369.871094 217.710938 372.851562 218.003906 375.832031 C 218.296875 378.808594 218.644531 381.78125 219.046875 384.746094 C 219.449219 387.710938 219.90625 390.667969 220.417969 393.617188 C 220.929688 396.566406 221.496094 399.503906 222.117188 402.429688 C 222.734375 405.359375 223.410156 408.273438 224.136719 411.175781 C 224.863281 414.082031 225.644531 416.96875 226.476562 419.84375 C 227.3125 422.71875 228.199219 425.574219 229.136719 428.414062 C 230.074219 431.257812 231.066406 434.082031 232.109375 436.886719 C 233.152344 439.691406 234.246094 442.476562 235.390625 445.238281 C 236.539062 448.003906 237.734375 450.746094 238.980469 453.46875 C 240.226562 456.1875 241.523438 458.886719 242.867188 461.558594 C 244.214844 464.230469 245.609375 466.878906 247.054688 469.5 C 248.496094 472.121094 249.988281 474.714844 251.527344 477.28125 C 253.066406 479.847656 254.652344 482.382812 256.285156 484.890625 C 257.917969 487.402344 259.59375 489.878906 261.320312 492.324219 C 263.042969 494.769531 264.808594 497.183594 266.625 499.566406 C 268.4375 501.945312 270.292969 504.292969 272.191406 506.605469 C 274.089844 508.917969 276.03125 511.195312 278.015625 513.4375 C 279.996094 515.675781 282.019531 517.882812 284.085938 520.046875 C 286.148438 522.214844 288.253906 524.34375 290.394531 526.433594 C 292.539062 528.519531 294.71875 530.570312 296.9375 532.578125 C 299.15625 534.585938 301.410156 536.554688 303.699219 538.480469 C 305.992188 540.40625 308.316406 542.289062 310.675781 544.128906 C 313.035156 545.96875 315.429688 547.765625 317.855469 549.515625 C 320.28125 551.269531 322.738281 552.976562 325.226562 554.636719 C 327.714844 556.296875 330.234375 557.914062 332.785156 559.480469 C 335.332031 561.050781 337.910156 562.570312 340.511719 564.046875 C 343.117188 565.519531 345.75 566.945312 348.40625 568.320312 C 351.0625 569.699219 353.746094 571.023438 356.449219 572.300781 C 359.15625 573.582031 361.886719 574.808594 364.636719 575.984375 C 367.386719 577.164062 370.160156 578.289062 372.953125 579.363281 C 375.746094 580.441406 378.554688 581.464844 381.386719 582.433594 C 384.21875 583.40625 387.066406 584.324219 389.929688 585.191406 C 392.792969 586.058594 395.671875 586.875 398.566406 587.632812 C 401.460938 588.394531 404.367188 589.101562 407.289062 589.753906 C 410.207031 590.410156 413.140625 591.007812 416.082031 591.554688 C 419.023438 592.101562 421.976562 592.589844 424.9375 593.027344 C 427.898438 593.464844 430.863281 593.847656 433.839844 594.175781 C 436.8125 594.5 439.792969 594.773438 442.777344 594.992188 C 445.761719 595.210938 448.75 595.371094 451.742188 595.480469 C 454.730469 595.585938 457.722656 595.640625 460.714844 595.636719 Z M 460.714844 161.734375 C 464.351562 161.726562 467.980469 161.820312 471.609375 162.023438 C 475.238281 162.222656 478.859375 162.527344 482.472656 162.933594 C 486.082031 163.339844 489.679688 163.851562 493.261719 164.464844 C 496.84375 165.078125 500.40625 165.792969 503.945312 166.613281 C 507.488281 167.429688 511.003906 168.347656 514.492188 169.367188 C 517.980469 170.386719 521.4375 171.503906 524.863281 172.722656 C 528.285156 173.941406 531.671875 175.253906 535.023438 176.667969 C 538.371094 178.078125 541.675781 179.582031 544.941406 181.183594 C 548.203125 182.785156 551.417969 184.480469 554.582031 186.265625 C 557.746094 188.050781 560.859375 189.921875 563.917969 191.886719 C 566.976562 193.851562 569.976562 195.902344 572.917969 198.035156 C 575.859375 200.171875 578.734375 202.390625 581.546875 204.691406 C 584.363281 206.992188 587.109375 209.371094 589.785156 211.828125 C 592.460938 214.285156 595.066406 216.816406 597.601562 219.425781 C 600.132812 222.03125 602.585938 224.710938 604.964844 227.457031 C 607.34375 230.203125 609.644531 233.019531 611.859375 235.898438 C 614.078125 238.777344 616.210938 241.71875 618.257812 244.71875 C 620.308594 247.722656 622.269531 250.78125 624.144531 253.894531 C 626.015625 257.007812 627.800781 260.175781 629.492188 263.390625 C 631.183594 266.605469 632.78125 269.867188 634.289062 273.175781 C 635.792969 276.484375 637.203125 279.832031 638.515625 283.222656 C 639.828125 286.613281 641.042969 290.035156 642.160156 293.492188 C 643.277344 296.953125 644.296875 300.441406 645.210938 303.957031 C 646.128906 307.472656 646.945312 311.011719 647.660156 314.578125 C 648.375 318.140625 648.984375 321.722656 649.496094 325.320312 C 650.003906 328.917969 650.410156 332.527344 650.710938 336.152344 C 651.011719 339.773438 651.210938 343.398438 651.304688 347.035156 C 651.398438 350.667969 651.390625 354.300781 651.277344 357.933594 C 651.160156 361.566406 650.941406 365.191406 650.621094 368.8125 C 650.300781 372.429688 649.875 376.039062 649.34375 379.636719 C 648.816406 383.230469 648.183594 386.808594 647.453125 390.367188 C 646.71875 393.925781 645.882812 397.464844 644.945312 400.976562 C 644.007812 404.488281 642.972656 407.96875 641.835938 411.421875 C 640.703125 414.871094 639.46875 418.289062 638.136719 421.671875 C 636.804688 425.054688 635.375 428.394531 633.851562 431.691406 C 632.328125 434.992188 630.710938 438.246094 629.003906 441.453125 C 627.292969 444.660156 625.492188 447.816406 623.601562 450.921875 C 621.710938 454.023438 619.734375 457.070312 617.667969 460.0625 C 615.601562 463.050781 613.453125 465.980469 611.21875 468.847656 C 608.988281 471.714844 606.671875 474.515625 604.28125 477.25 C 601.886719 479.984375 599.414062 482.648438 596.871094 485.242188 C 594.324219 487.835938 591.703125 490.355469 589.011719 492.796875 C 586.324219 495.242188 583.5625 497.605469 580.738281 499.890625 C 577.910156 502.175781 575.023438 504.375 572.070312 506.496094 C 569.117188 508.617188 566.105469 510.648438 563.035156 512.59375 C 559.96875 514.542969 556.847656 516.398438 553.671875 518.167969 C 550.496094 519.933594 547.269531 521.609375 544 523.191406 C 540.726562 524.777344 537.414062 526.265625 534.058594 527.65625 C 530.699219 529.050781 527.304688 530.347656 523.875 531.546875 C 520.445312 532.742188 516.980469 533.84375 513.488281 534.84375 C 509.992188 535.84375 506.472656 536.742188 502.929688 537.539062 C 499.382812 538.339844 495.816406 539.035156 492.230469 539.628906 C 488.644531 540.222656 485.046875 540.714844 481.433594 541.101562 C 477.820312 541.488281 474.195312 541.773438 470.566406 541.953125 C 466.9375 542.132812 463.304688 542.207031 459.671875 542.179688 C 456.035156 542.152344 452.40625 542.019531 448.777344 541.785156 C 445.152344 541.546875 441.535156 541.207031 437.929688 540.765625 C 434.320312 540.320312 430.730469 539.773438 427.152344 539.125 C 423.578125 538.476562 420.023438 537.722656 416.488281 536.871094 C 412.957031 536.019531 409.453125 535.066406 405.972656 534.011719 C 402.496094 532.957031 399.050781 531.804688 395.636719 530.550781 C 392.226562 529.300781 388.851562 527.953125 385.519531 526.507812 C 382.183594 525.0625 378.890625 523.523438 375.644531 521.890625 C 372.398438 520.257812 369.203125 518.53125 366.054688 516.714844 C 362.90625 514.898438 359.8125 512.992188 356.773438 511 C 353.734375 509.003906 350.757812 506.925781 347.835938 504.761719 C 344.917969 502.597656 342.0625 500.347656 339.273438 498.019531 C 336.480469 495.691406 333.761719 493.285156 331.109375 490.800781 C 328.453125 488.316406 325.875 485.757812 323.371094 483.125 C 320.863281 480.496094 318.433594 477.792969 316.082031 475.019531 C 313.734375 472.25 311.460938 469.414062 309.273438 466.511719 C 307.085938 463.609375 304.980469 460.648438 302.964844 457.625 C 300.945312 454.605469 299.011719 451.527344 297.171875 448.394531 C 295.328125 445.261719 293.578125 442.078125 291.917969 438.84375 C 290.257812 435.613281 288.691406 432.332031 287.21875 429.011719 C 285.746094 425.6875 284.371094 422.324219 283.09375 418.921875 C 281.8125 415.523438 280.632812 412.085938 279.550781 408.617188 C 278.46875 405.148438 277.484375 401.648438 276.601562 398.125 C 275.722656 394.597656 274.941406 391.050781 274.261719 387.480469 C 273.582031 383.910156 273.007812 380.320312 272.535156 376.71875 C 272.0625 373.113281 271.691406 369.5 271.425781 365.875 C 271.160156 362.25 271 358.621094 270.941406 354.988281 C 270.882812 351.355469 270.929688 347.722656 271.078125 344.089844 C 271.230469 340.460938 271.484375 336.835938 271.84375 333.21875 C 272.199219 329.601562 272.660156 326 273.226562 322.40625 C 273.789062 318.816406 274.457031 315.246094 275.226562 311.695312 C 275.996094 308.140625 276.867188 304.617188 277.839844 301.113281 C 278.808594 297.609375 279.878906 294.140625 281.050781 290.699219 C 282.222656 287.257812 283.488281 283.851562 284.855469 280.484375 C 286.21875 277.117188 287.679688 273.789062 289.238281 270.507812 C 290.792969 267.222656 292.441406 263.984375 294.183594 260.796875 C 295.925781 257.605469 297.757812 254.46875 299.679688 251.382812 C 301.601562 248.296875 303.609375 245.269531 305.703125 242.300781 C 307.800781 239.332031 309.976562 236.425781 312.238281 233.578125 C 314.5 230.734375 316.84375 227.957031 319.265625 225.246094 C 321.683594 222.535156 324.179688 219.894531 326.753906 217.328125 C 331.140625 212.9375 335.734375 208.773438 340.527344 204.835938 C 345.324219 200.898438 350.300781 197.203125 355.460938 193.75 C 360.617188 190.300781 365.933594 187.113281 371.40625 184.183594 C 376.878906 181.253906 382.480469 178.601562 388.210938 176.222656 C 393.945312 173.84375 399.777344 171.75 405.714844 169.945312 C 411.652344 168.136719 417.664062 166.628906 423.75 165.410156 C 429.835938 164.195312 435.96875 163.28125 442.144531 162.664062 C 448.320312 162.050781 454.511719 161.742188 460.714844 161.734375 Z M 460.714844 161.734375 " fill-opacity="1" fill-rule="nonzero"/><g clip-path="url(#11dd5e1cfe)"><path fill="#000000" d="M 115.09375 724.375 C 116.851562 724.367188 118.589844 724.191406 120.308594 723.839844 C 122.03125 723.492188 123.703125 722.976562 125.324219 722.300781 C 126.941406 721.621094 128.480469 720.792969 129.9375 719.8125 C 131.394531 718.832031 132.742188 717.71875 133.980469 716.472656 L 326.21875 524.371094 C 326.839844 523.75 327.425781 523.097656 327.984375 522.421875 C 328.542969 521.742188 329.0625 521.039062 329.550781 520.308594 C 330.039062 519.578125 330.492188 518.824219 330.902344 518.050781 C 331.316406 517.277344 331.691406 516.484375 332.027344 515.671875 C 332.363281 514.863281 332.660156 514.035156 332.914062 513.195312 C 333.171875 512.355469 333.382812 511.503906 333.554688 510.644531 C 333.726562 509.78125 333.855469 508.914062 333.941406 508.042969 C 334.027344 507.167969 334.070312 506.292969 334.070312 505.414062 C 334.070312 504.535156 334.027344 503.660156 333.941406 502.785156 C 333.855469 501.914062 333.726562 501.046875 333.554688 500.183594 C 333.382812 499.324219 333.171875 498.472656 332.914062 497.632812 C 332.660156 496.792969 332.363281 495.964844 332.027344 495.15625 C 331.691406 494.34375 331.316406 493.550781 330.902344 492.777344 C 330.492188 492.003906 330.039062 491.25 329.550781 490.519531 C 329.0625 489.789062 328.542969 489.085938 327.984375 488.40625 C 327.425781 487.730469 326.839844 487.078125 326.21875 486.457031 C 325.597656 485.835938 324.949219 485.25 324.269531 484.691406 C 323.589844 484.136719 322.886719 483.613281 322.15625 483.125 C 321.425781 482.636719 320.671875 482.1875 319.898438 481.773438 C 319.125 481.359375 318.332031 480.984375 317.519531 480.648438 C 316.710938 480.3125 315.882812 480.015625 315.042969 479.761719 C 314.203125 479.507812 313.351562 479.292969 312.492188 479.121094 C 311.632812 478.949219 310.761719 478.820312 309.890625 478.734375 C 309.015625 478.648438 308.140625 478.605469 307.261719 478.605469 C 306.382812 478.605469 305.507812 478.648438 304.632812 478.734375 C 303.761719 478.820312 302.894531 478.949219 302.03125 479.121094 C 301.171875 479.292969 300.320312 479.507812 299.480469 479.761719 C 298.640625 480.015625 297.816406 480.3125 297.003906 480.648438 C 296.191406 480.984375 295.398438 481.359375 294.625 481.773438 C 293.851562 482.1875 293.097656 482.636719 292.367188 483.125 C 291.640625 483.613281 290.933594 484.136719 290.253906 484.691406 C 289.578125 485.25 288.925781 485.835938 288.304688 486.457031 L 96.203125 678.695312 C 95.277344 679.625 94.425781 680.621094 93.644531 681.675781 C 92.867188 682.734375 92.167969 683.84375 91.550781 685.003906 C 90.933594 686.164062 90.40625 687.359375 89.964844 688.597656 C 89.523438 689.835938 89.175781 691.097656 88.921875 692.386719 C 88.667969 693.675781 88.507812 694.976562 88.445312 696.289062 C 88.382812 697.601562 88.414062 698.910156 88.542969 700.21875 C 88.671875 701.523438 88.894531 702.816406 89.214844 704.089844 C 89.535156 705.363281 89.945312 706.605469 90.445312 707.820312 C 90.949219 709.035156 91.535156 710.207031 92.210938 711.332031 C 92.882812 712.460938 93.636719 713.53125 94.46875 714.550781 C 95.300781 715.566406 96.203125 716.515625 97.175781 717.398438 C 98.144531 718.285156 99.175781 719.09375 100.265625 719.824219 C 101.359375 720.558594 102.496094 721.207031 103.679688 721.769531 C 104.867188 722.335938 106.089844 722.8125 107.34375 723.195312 C 108.597656 723.582031 109.875 723.875 111.175781 724.070312 C 112.472656 724.269531 113.78125 724.371094 115.09375 724.375 Z M 115.09375 724.375 " fill-opacity="1" fill-rule="nonzero"/></g></svg>